<mxfile host="app.diagrams.net" agent="Mozilla/5.0 (Windows NT 10.0; Win64; x64) AppleWebKit/537.36 (KHTML, like Gecko) Chrome/140.0.0.0 Safari/537.36 Edg/140.0.0.0" version="28.2.0">
  <diagram name="ページ1" id="pNQT2Dn1sgpCk6gsPJh1">
    <mxGraphModel dx="1605" dy="460" grid="1" gridSize="10" guides="1" tooltips="1" connect="1" arrows="1" fold="1" page="1" pageScale="1" pageWidth="827" pageHeight="1169" math="0" shadow="0">
      <root>
        <mxCell id="0" />
        <mxCell id="1" parent="0" />
        <mxCell id="Hbg9IcQPfvMIXnok0VCy-1" value="乗り物" style="rounded=0;whiteSpace=wrap;html=1;" parent="1" vertex="1">
          <mxGeometry x="110" y="40" width="120" height="40" as="geometry" />
        </mxCell>
        <mxCell id="Hbg9IcQPfvMIXnok0VCy-2" value="車" style="rounded=0;whiteSpace=wrap;html=1;" parent="1" vertex="1">
          <mxGeometry x="-20" y="150" width="120" height="40" as="geometry" />
        </mxCell>
        <mxCell id="Hbg9IcQPfvMIXnok0VCy-3" value="船" style="rounded=0;whiteSpace=wrap;html=1;" parent="1" vertex="1">
          <mxGeometry x="110" y="150" width="120" height="40" as="geometry" />
        </mxCell>
        <mxCell id="Hbg9IcQPfvMIXnok0VCy-4" value="飛行機" style="rounded=0;whiteSpace=wrap;html=1;" parent="1" vertex="1">
          <mxGeometry x="244" y="150" width="120" height="40" as="geometry" />
        </mxCell>
        <mxCell id="Hbg9IcQPfvMIXnok0VCy-5" value="" style="endArrow=block;html=1;rounded=0;endFill=0;entryX=0.25;entryY=1;entryDx=0;entryDy=0;" parent="1" target="Hbg9IcQPfvMIXnok0VCy-1" edge="1">
          <mxGeometry width="50" height="50" relative="1" as="geometry">
            <mxPoint x="40" y="150" as="sourcePoint" />
            <mxPoint x="120" y="70" as="targetPoint" />
          </mxGeometry>
        </mxCell>
        <mxCell id="Hbg9IcQPfvMIXnok0VCy-6" value="" style="endArrow=block;html=1;rounded=0;endFill=0;entryX=0.75;entryY=1;entryDx=0;entryDy=0;" parent="1" target="Hbg9IcQPfvMIXnok0VCy-1" edge="1">
          <mxGeometry width="50" height="50" relative="1" as="geometry">
            <mxPoint x="290" y="150" as="sourcePoint" />
            <mxPoint x="220" y="110" as="targetPoint" />
          </mxGeometry>
        </mxCell>
        <mxCell id="Hbg9IcQPfvMIXnok0VCy-8" value="" style="endArrow=block;html=1;rounded=0;endFill=0;entryX=0.5;entryY=1;entryDx=0;entryDy=0;" parent="1" target="Hbg9IcQPfvMIXnok0VCy-1" edge="1">
          <mxGeometry width="50" height="50" relative="1" as="geometry">
            <mxPoint x="169.5" y="150" as="sourcePoint" />
            <mxPoint x="170" y="90" as="targetPoint" />
          </mxGeometry>
        </mxCell>
        <mxCell id="Hbg9IcQPfvMIXnok0VCy-9" value="車" style="rounded=0;whiteSpace=wrap;html=1;" parent="1" vertex="1">
          <mxGeometry x="440" y="240" width="120" height="40" as="geometry" />
        </mxCell>
        <mxCell id="Hbg9IcQPfvMIXnok0VCy-10" value="ライト" style="rounded=0;whiteSpace=wrap;html=1;" parent="1" vertex="1">
          <mxGeometry x="430" y="430" width="120" height="40" as="geometry" />
        </mxCell>
        <mxCell id="Hbg9IcQPfvMIXnok0VCy-12" value="ハンドル" style="rounded=0;whiteSpace=wrap;html=1;" parent="1" vertex="1">
          <mxGeometry x="620" y="430" width="120" height="40" as="geometry" />
        </mxCell>
        <mxCell id="Hbg9IcQPfvMIXnok0VCy-13" value="エンジン" style="rounded=0;whiteSpace=wrap;html=1;" parent="1" vertex="1">
          <mxGeometry x="340" y="340" width="120" height="40" as="geometry" />
        </mxCell>
        <mxCell id="Hbg9IcQPfvMIXnok0VCy-14" value="ボディ" style="rounded=0;whiteSpace=wrap;html=1;" parent="1" vertex="1">
          <mxGeometry x="530" y="340" width="120" height="40" as="geometry" />
        </mxCell>
        <mxCell id="Hbg9IcQPfvMIXnok0VCy-15" value="" style="endArrow=classic;html=1;rounded=0;" parent="1" edge="1">
          <mxGeometry width="50" height="50" relative="1" as="geometry">
            <mxPoint x="500" y="430" as="sourcePoint" />
            <mxPoint x="550" y="380" as="targetPoint" />
          </mxGeometry>
        </mxCell>
        <mxCell id="Hbg9IcQPfvMIXnok0VCy-16" value="" style="endArrow=classic;html=1;rounded=0;entryX=0.683;entryY=0.967;entryDx=0;entryDy=0;entryPerimeter=0;" parent="1" source="Hbg9IcQPfvMIXnok0VCy-12" target="Hbg9IcQPfvMIXnok0VCy-14" edge="1">
          <mxGeometry width="50" height="50" relative="1" as="geometry">
            <mxPoint x="730" y="500" as="sourcePoint" />
            <mxPoint x="630" y="380" as="targetPoint" />
            <Array as="points" />
          </mxGeometry>
        </mxCell>
        <mxCell id="Hbg9IcQPfvMIXnok0VCy-17" value="" style="endArrow=classic;html=1;rounded=0;entryX=0.75;entryY=1;entryDx=0;entryDy=0;" parent="1" target="Hbg9IcQPfvMIXnok0VCy-9" edge="1">
          <mxGeometry width="50" height="50" relative="1" as="geometry">
            <mxPoint x="590" y="340" as="sourcePoint" />
            <mxPoint x="560" y="290" as="targetPoint" />
          </mxGeometry>
        </mxCell>
        <mxCell id="Hbg9IcQPfvMIXnok0VCy-18" value="" style="endArrow=classic;html=1;rounded=0;entryX=0.25;entryY=1;entryDx=0;entryDy=0;" parent="1" target="Hbg9IcQPfvMIXnok0VCy-9" edge="1">
          <mxGeometry width="50" height="50" relative="1" as="geometry">
            <mxPoint x="410" y="340" as="sourcePoint" />
            <mxPoint x="460" y="290" as="targetPoint" />
          </mxGeometry>
        </mxCell>
        <mxCell id="Hbg9IcQPfvMIXnok0VCy-19" value="" style="endArrow=none;html=1;rounded=0;entryX=0.5;entryY=1;entryDx=0;entryDy=0;endFill=0;" parent="1" target="Hbg9IcQPfvMIXnok0VCy-2" edge="1">
          <mxGeometry width="50" height="50" relative="1" as="geometry">
            <mxPoint x="40" y="260" as="sourcePoint" />
            <mxPoint x="80" y="230" as="targetPoint" />
          </mxGeometry>
        </mxCell>
        <mxCell id="Hbg9IcQPfvMIXnok0VCy-20" value="" style="endArrow=none;html=1;rounded=0;entryX=0.5;entryY=1;entryDx=0;entryDy=0;endFill=0;" parent="1" target="Hbg9IcQPfvMIXnok0VCy-3" edge="1">
          <mxGeometry width="50" height="50" relative="1" as="geometry">
            <mxPoint x="170" y="260" as="sourcePoint" />
            <mxPoint x="170" y="240" as="targetPoint" />
          </mxGeometry>
        </mxCell>
        <mxCell id="Hbg9IcQPfvMIXnok0VCy-22" value="さこん" style="rounded=0;whiteSpace=wrap;html=1;" parent="1" vertex="1">
          <mxGeometry x="110" y="260" width="120" height="40" as="geometry" />
        </mxCell>
        <mxCell id="Hbg9IcQPfvMIXnok0VCy-23" value="金色" style="rounded=0;whiteSpace=wrap;html=1;" parent="1" vertex="1">
          <mxGeometry x="-20" y="260" width="120" height="40" as="geometry" />
        </mxCell>
        <mxCell id="Hbg9IcQPfvMIXnok0VCy-25" value="ほしい" style="text;strokeColor=none;align=center;fillColor=none;html=1;verticalAlign=middle;whiteSpace=wrap;rounded=0;" parent="1" vertex="1">
          <mxGeometry x="184" y="200" width="60" height="30" as="geometry" />
        </mxCell>
        <mxCell id="Hbg9IcQPfvMIXnok0VCy-26" value="こだわり" style="text;strokeColor=none;align=center;fillColor=none;html=1;verticalAlign=middle;whiteSpace=wrap;rounded=0;" parent="1" vertex="1">
          <mxGeometry x="-40" y="200" width="60" height="30" as="geometry" />
        </mxCell>
        <mxCell id="Hbg9IcQPfvMIXnok0VCy-27" value="利用者" style="rounded=0;whiteSpace=wrap;html=1;" parent="1" vertex="1">
          <mxGeometry x="-613" y="70" width="110" height="40" as="geometry" />
        </mxCell>
        <mxCell id="Hbg9IcQPfvMIXnok0VCy-28" value="図書カード" style="rounded=0;whiteSpace=wrap;html=1;" parent="1" vertex="1">
          <mxGeometry x="-613" y="190" width="110" height="40" as="geometry" />
        </mxCell>
        <mxCell id="Hbg9IcQPfvMIXnok0VCy-29" value="ID" style="rounded=0;whiteSpace=wrap;html=1;" parent="1" vertex="1">
          <mxGeometry x="-613" y="270" width="110" height="40" as="geometry" />
        </mxCell>
        <mxCell id="Hbg9IcQPfvMIXnok0VCy-30" value="" style="endArrow=classic;html=1;rounded=0;exitX=0.5;exitY=0;exitDx=0;exitDy=0;" parent="1" source="Hbg9IcQPfvMIXnok0VCy-28" edge="1">
          <mxGeometry width="50" height="50" relative="1" as="geometry">
            <mxPoint x="-563" y="180" as="sourcePoint" />
            <mxPoint x="-558.5" y="110" as="targetPoint" />
          </mxGeometry>
        </mxCell>
        <mxCell id="Hbg9IcQPfvMIXnok0VCy-31" value="" style="endArrow=classic;html=1;rounded=0;entryX=0.5;entryY=1;entryDx=0;entryDy=0;" parent="1" target="Hbg9IcQPfvMIXnok0VCy-28" edge="1">
          <mxGeometry width="50" height="50" relative="1" as="geometry">
            <mxPoint x="-558.5" y="270" as="sourcePoint" />
            <mxPoint x="-558.5" y="220" as="targetPoint" />
          </mxGeometry>
        </mxCell>
        <mxCell id="Hbg9IcQPfvMIXnok0VCy-35" value="氏名" style="whiteSpace=wrap;html=1;rounded=0;" parent="1" vertex="1">
          <mxGeometry x="-393" y="180" width="80" height="30" as="geometry" />
        </mxCell>
        <mxCell id="Hbg9IcQPfvMIXnok0VCy-39" value="住所" style="whiteSpace=wrap;html=1;rounded=0;" parent="1" vertex="1">
          <mxGeometry x="-393" y="220" width="80" height="30" as="geometry" />
        </mxCell>
        <mxCell id="Hbg9IcQPfvMIXnok0VCy-40" value="電子メールアドレス" style="whiteSpace=wrap;html=1;rounded=0;" parent="1" vertex="1">
          <mxGeometry x="-393" y="310" width="80" height="30" as="geometry" />
        </mxCell>
        <mxCell id="Hbg9IcQPfvMIXnok0VCy-44" value="電話番号" style="whiteSpace=wrap;html=1;rounded=0;" parent="1" vertex="1">
          <mxGeometry x="-393" y="265" width="80" height="30" as="geometry" />
        </mxCell>
        <mxCell id="Hbg9IcQPfvMIXnok0VCy-46" value="" style="endArrow=classic;html=1;rounded=0;exitX=0;exitY=0.5;exitDx=0;exitDy=0;entryX=1;entryY=0.25;entryDx=0;entryDy=0;" parent="1" source="Hbg9IcQPfvMIXnok0VCy-35" target="Hbg9IcQPfvMIXnok0VCy-28" edge="1">
          <mxGeometry width="50" height="50" relative="1" as="geometry">
            <mxPoint x="-533" y="300" as="sourcePoint" />
            <mxPoint x="-483" y="250" as="targetPoint" />
          </mxGeometry>
        </mxCell>
        <mxCell id="Hbg9IcQPfvMIXnok0VCy-47" value="図書&lt;span style=&quot;color: rgba(0, 0, 0, 0); font-family: monospace; font-size: 0px; text-align: start; text-wrap-mode: nowrap;&quot;&gt;%3CmxGraphModel%3E%3Croot%3E%3CmxCell%20id%3D%220%22%2F%3E%3CmxCell%20id%3D%221%22%20parent%3D%220%22%2F%3E%3CmxCell%20id%3D%222%22%20value%3D%22%E6%B0%8F%E5%90%8D%22%20style%3D%22whiteSpace%3Dwrap%3Bhtml%3D1%3Brounded%3D0%3B%22%20vertex%3D%221%22%20parent%3D%221%22%3E%3CmxGeometry%20x%3D%22-500%22%20y%3D%22180%22%20width%3D%2280%22%20height%3D%2230%22%20as%3D%22geometry%22%2F%3E%3C%2FmxCell%3E%3C%2Froot%3E%3C%2FmxGraphModel%3E&lt;/span&gt;&lt;span style=&quot;color: rgba(0, 0, 0, 0); font-family: monospace; font-size: 0px; text-align: start; text-wrap-mode: nowrap;&quot;&gt;%3CmxGraphModel%3E%3Croot%3E%3CmxCell%20id%3D%220%22%2F%3E%3CmxCell%20id%3D%221%22%20parent%3D%220%22%2F%3E%3CmxCell%20id%3D%222%22%20value%3D%22%E6%B0%8F%E5%90%8D%22%20style%3D%22whiteSpace%3Dwrap%3Bhtml%3D1%3Brounded%3D0%3B%22%20vertex%3D%221%22%20parent%3D%221%22%3E%3CmxGeometry%20x%3D%22-500%22%20y%3D%22180%22%20width%3D%2280%22%20height%3D%2230%22%20as%3D%22geometry%22%2F%3E%3C%2FmxCell%3E%3C%2Froot%3E%3C%2FmxGraphModel%3E&lt;/span&gt;" style="whiteSpace=wrap;html=1;rounded=0;" parent="1" vertex="1">
          <mxGeometry x="-413" y="70" width="80" height="40" as="geometry" />
        </mxCell>
        <mxCell id="Hbg9IcQPfvMIXnok0VCy-48" value="書名" style="whiteSpace=wrap;html=1;rounded=0;" parent="1" vertex="1">
          <mxGeometry x="-293" y="45" width="80" height="30" as="geometry" />
        </mxCell>
        <mxCell id="Hbg9IcQPfvMIXnok0VCy-49" value="著者" style="whiteSpace=wrap;html=1;rounded=0;" parent="1" vertex="1">
          <mxGeometry x="-293" y="100" width="80" height="30" as="geometry" />
        </mxCell>
        <mxCell id="Hbg9IcQPfvMIXnok0VCy-50" value="借りている本" style="rounded=0;whiteSpace=wrap;html=1;" parent="1" vertex="1">
          <mxGeometry x="-827" y="190" width="77" height="40" as="geometry" />
        </mxCell>
        <mxCell id="Hbg9IcQPfvMIXnok0VCy-51" value="借りている本" style="rounded=0;whiteSpace=wrap;html=1;" parent="1" vertex="1">
          <mxGeometry x="-720" y="240" width="77" height="40" as="geometry" />
        </mxCell>
        <mxCell id="Hbg9IcQPfvMIXnok0VCy-52" value="パスワード" style="rounded=0;whiteSpace=wrap;html=1;" parent="1" vertex="1">
          <mxGeometry x="-720" y="240" width="77" height="40" as="geometry" />
        </mxCell>
        <mxCell id="Hbg9IcQPfvMIXnok0VCy-56" value="" style="endArrow=none;html=1;rounded=0;entryX=0;entryY=0.5;entryDx=0;entryDy=0;" parent="1" target="Hbg9IcQPfvMIXnok0VCy-47" edge="1">
          <mxGeometry width="50" height="50" relative="1" as="geometry">
            <mxPoint x="-503" y="89.5" as="sourcePoint" />
            <mxPoint x="-416" y="89.5" as="targetPoint" />
          </mxGeometry>
        </mxCell>
        <mxCell id="Hbg9IcQPfvMIXnok0VCy-57" value="検索" style="text;strokeColor=none;align=center;fillColor=none;html=1;verticalAlign=middle;whiteSpace=wrap;rounded=0;" parent="1" vertex="1">
          <mxGeometry x="-490" y="45" width="60" height="30" as="geometry" />
        </mxCell>
        <mxCell id="8T_AqeZxX2xhX4UbSlH9-5" value="フィー―ルド＝属性&lt;div&gt;メソッド＝操作&lt;/div&gt;" style="text;strokeColor=none;align=center;fillColor=none;html=1;verticalAlign=middle;whiteSpace=wrap;rounded=0;" vertex="1" parent="1">
          <mxGeometry x="-390" y="540" width="150" height="30" as="geometry" />
        </mxCell>
        <mxCell id="8T_AqeZxX2xhX4UbSlH9-7" value="Text" style="text;html=1;align=center;verticalAlign=middle;resizable=0;points=[];autosize=1;strokeColor=none;fillColor=none;" vertex="1" parent="1">
          <mxGeometry x="-350" y="640" width="50" height="30" as="geometry" />
        </mxCell>
      </root>
    </mxGraphModel>
  </diagram>
</mxfile>
